<svg width="221" height="223" viewBox="0 0 221 223" fill="none" xmlns="http://www.w3.org/2000/svg">
<path fill-rule="evenodd" clip-rule="evenodd" d="M45.239 1.24597C40.214 3.06797 35.438 7.37396 33.112 12.18C31.031 16.478 31 17.462 31.022 78.977C31.043 137.614 31.157 141.654 32.896 145.411C33.914 147.611 36.042 150.625 37.624 152.108C43.959 158.049 42.244 157.911 109.979 157.911C171.491 157.911 172.061 157.893 176.622 155.748C181.802 153.314 186.466 147.609 188.032 141.79C188.697 139.323 188.96 116.359 188.78 76.695C188.529 21.855 188.326 15.093 186.843 12.39C184.41 7.95597 180.042 3.87296 175.5 1.78996C171.754 0.0709634 167.602 -0.0420273 110 0.00897274C65.292 0.0479727 47.61 0.385972 45.239 1.24597ZM62.629 37.676C63.25 38.08 67.975 56.636 73.129 78.911L82.5 119.411L116.987 119.911C149.732 120.386 151.492 120.506 151.835 122.291C152.372 125.083 150.283 125.879 142.372 125.896C137.242 125.907 134.896 125.491 134 124.411C132.42 122.507 127.094 122.525 124.559 124.443C121.899 126.454 108.242 126.409 105.559 124.379C103.041 122.475 97.592 122.493 96 124.411C94.386 126.356 79.532 126.566 78.328 124.661C77.894 123.974 73.603 106.311 68.792 85.411C63.98 64.511 59.805 46.417 59.513 45.201C59.026 43.175 58.299 42.967 50.752 42.701C43.62 42.45 42.474 42.16 42.163 40.531C41.965 39.497 42.41 38.266 43.152 37.796C44.798 36.753 61.056 36.653 62.629 37.676ZM164.493 46.899C164.964 47.662 152.887 102.65 150.376 111.175C149.892 112.819 147.764 112.922 119.297 112.675L88.738 112.411L81.363 80.411C77.306 62.811 74.201 47.849 74.462 47.161C75.066 45.572 163.513 45.314 164.493 46.899ZM81 52.998C81 53.595 83.7 65.78 87 80.075C90.3 94.37 93 106.256 93 106.488C93 106.721 104.845 106.911 119.322 106.911H145.645L151.827 80.161C155.227 65.448 158.007 53.073 158.005 52.661C158.002 52.249 140.675 51.911 119.5 51.911C92.455 51.911 81 52.234 81 52.998ZM103.777 125.468C108.755 128.954 104.025 136.61 98.459 134.074C95.13 132.557 94.733 127.494 97.76 125.161C99.886 123.523 101.088 123.584 103.777 125.468ZM131.495 124.547C132.407 124.897 133.569 126.277 134.077 127.613C135.976 132.608 130.986 136.442 126.451 133.471C123.48 131.524 123.306 128.605 126 125.911C128.155 123.756 128.931 123.564 131.495 124.547ZM166 181.911V194.911H169C171.762 194.911 172 194.633 172 191.411C172 187.008 172.901 187.011 175.759 191.423C177.629 194.309 178.621 194.911 181.509 194.911C183.429 194.911 185 194.729 185 194.506C185 194.283 183.425 192.215 181.5 189.911C179.575 187.607 178 185.378 178 184.957C178 184.537 179.568 182.217 181.485 179.802L184.971 175.411L181.8 175.084C179.165 174.812 178.076 175.403 175.352 178.584L172.075 182.411L172.038 175.661L172 168.911H169H166V181.911ZM0 182.411V194.911H2.95599H5.912L6.20599 187.661L6.5 180.411L11.397 187.661C15.559 193.823 16.722 194.911 19.147 194.911H22V182.411V169.911H19.044H16.088L15.794 177.161L15.5 184.411L11.02 177.161C6.936 170.552 6.251 169.911 3.27 169.911H0V182.411ZM95 182.351V194.911H97.954C100.906 194.911 100.909 194.904 101.204 188.161L101.5 181.411L103.935 188.161C106.101 194.166 106.66 194.911 109 194.911C111.34 194.911 111.899 194.166 114.065 188.161L116.5 181.411L116.796 188.161C117.091 194.904 117.094 194.911 120.046 194.911H123V182.351V169.79L119.283 170.101C115.645 170.404 115.503 170.575 112.533 178.158C110.865 182.418 109.275 185.904 109 185.904C108.725 185.904 107.135 182.418 105.467 178.158C102.497 170.575 102.355 170.404 98.717 170.101L95 169.79V182.351ZM210.378 171.661C210.07 172.623 209.329 174.433 208.73 175.681C207.926 177.356 207.95 178.261 208.82 179.131C209.469 179.78 210 181.954 210 183.962C210 191.896 213.138 195.801 218.659 194.738C221.322 194.225 221.637 190.89 219.087 190.223C217.339 189.766 217 188.903 217 184.911C217 180.985 217.353 180.052 219 179.621C220.1 179.334 221 178.339 221 177.411C221 176.483 220.1 175.488 219 175.201C217.706 174.862 217 173.837 217 172.294C217 170.307 216.496 169.911 213.969 169.911C211.961 169.911 210.748 170.502 210.378 171.661ZM28.879 177.727C26.254 180.073 25.727 181.274 25.727 184.911C25.727 188.548 26.254 189.749 28.879 192.095C31.052 194.036 33.109 194.911 35.5 194.911C37.891 194.911 39.948 194.036 42.121 192.095C44.746 189.749 45.273 188.548 45.273 184.911C45.273 181.274 44.746 180.073 42.121 177.727C39.948 175.786 37.891 174.911 35.5 174.911C33.109 174.911 31.052 175.786 28.879 177.727ZM48 176.142C48 176.819 49.412 181.319 51.137 186.142L54.274 194.911H57.931H61.588L64.429 186.161C65.992 181.349 67.496 176.815 67.771 176.088C68.136 175.12 67.381 174.851 64.96 175.088C61.861 175.39 61.549 175.773 60.075 181.083C59.209 184.202 58.262 186.99 57.972 187.278C57.681 187.565 56.613 184.901 55.598 181.356C53.878 175.351 53.556 174.911 50.876 174.911C49.266 174.911 48 175.453 48 176.142ZM72.589 177.988C68.876 182.401 69.011 188.076 72.923 191.988C75.977 195.041 78.799 195.624 82.066 193.876C83.399 193.162 84 193.162 84 193.876C84 194.445 85.35 194.911 87 194.911H90V184.911V174.911H87C85.35 174.911 84 175.377 84 175.946C84 176.66 83.399 176.66 82.066 175.946C78.551 174.065 75.3 174.766 72.589 177.988ZM129.306 177.324C126.904 179.39 126.5 180.483 126.5 184.911C126.5 189.339 126.904 190.432 129.306 192.498C132.328 195.098 134.998 195.518 138.066 193.876C139.399 193.162 140 193.162 140 193.876C140 194.445 141.35 194.911 143 194.911H146V184.911V174.911H143C141.35 174.911 140 175.377 140 175.946C140 176.66 139.399 176.66 138.066 175.946C134.998 174.304 132.328 174.724 129.306 177.324ZM151 184.911V194.911H154C156.989 194.911 157 194.889 157 189.111C157 183.097 158.12 180.911 161.2 180.911C162.533 180.911 163 180.133 163 177.911C163 174.556 161.562 174.092 158.829 176.566C157.127 178.106 157 178.106 157 176.566C157 175.394 156.125 174.911 154 174.911H151V184.911ZM191.365 176.08C188.43 177.502 186.586 181.305 186.711 185.685C186.847 190.483 191.488 194.911 196.381 194.911C199.995 194.911 205 191.675 205 189.338C205 187.636 200.779 187.424 197.87 188.98C196.416 189.759 195.482 189.726 194.436 188.858C191.752 186.63 192.988 185.911 199.5 185.911C205.818 185.911 206 185.839 206 183.334C206 179.484 200.961 174.895 196.827 174.979C194.997 175.016 192.539 175.512 191.365 176.08ZM37.95 181.351C39.557 183.287 38.897 187.961 36.834 189.252C34.54 190.688 32 188.448 32 184.989C32 180.526 35.493 178.39 37.95 181.351ZM82.429 181.482C83.293 182.347 84 183.89 84 184.911C84 186.819 81.526 189.911 80 189.911C78.474 189.911 76 186.819 76 184.911C76 183.003 78.474 179.911 80 179.911C80.471 179.911 81.564 180.618 82.429 181.482ZM138.066 180.946C141.715 182.899 139.777 189.911 135.589 189.911C135.29 189.911 134.309 188.786 133.408 187.411C131.891 185.095 131.891 184.727 133.408 182.411C135.267 179.574 135.415 179.527 138.066 180.946ZM198.559 181.379C200.378 182.755 200.264 182.849 196.75 182.879C193.118 182.91 191.7 181.602 194.25 180.573C196.229 179.775 196.506 179.826 198.559 181.379ZM68 208.919C68 211.653 67.821 211.816 66.049 210.709C63.242 208.957 58.774 210.768 57.589 214.139C55.652 219.645 61.439 224.991 66.151 222.049C67.297 221.333 68 221.277 68 221.903C68 222.457 68.45 222.911 69 222.911C69.588 222.911 70 219.411 70 214.411C70 209.411 69.588 205.911 69 205.911C68.45 205.911 68 207.265 68 208.919ZM140.292 207.661C139.936 208.623 139.163 209.783 138.573 210.237C137.827 210.811 137.882 211.218 138.75 211.57C139.534 211.888 140 214.098 140 217.494C140 220.474 140.45 222.911 141 222.911C141.55 222.911 142 220.474 142 217.494C142 214.098 142.466 211.888 143.25 211.57C144.194 211.188 144.133 210.781 143 209.911C141.867 209.041 141.806 208.634 142.75 208.252C144.506 207.539 144.31 205.911 142.469 205.911C141.626 205.911 140.647 206.699 140.292 207.661ZM15 207.911C15 208.461 15.9 208.911 17 208.911C18.81 208.911 19 209.578 19 215.911C19 219.911 19.429 222.911 20 222.911C20.571 222.911 21 219.911 21 215.911C21 209.111 21.071 208.911 23.5 208.911C24.875 208.911 26 208.461 26 207.911C26 207.361 23.525 206.911 20.5 206.911C17.475 206.911 15 207.361 15 207.911ZM162 208.328C162 209.107 161.438 210.007 160.75 210.328C159.75 210.794 159.75 211.028 160.75 211.494C161.46 211.826 162 213.899 162 216.294C162 218.614 162.54 221.051 163.2 221.711C164.653 223.164 168 223.304 168 221.911C168 221.361 167.325 220.911 166.5 220.911C165.389 220.911 165 219.744 165 216.411C165 213.078 165.389 211.911 166.5 211.911C167.325 211.911 168 211.461 168 210.911C168 210.361 167.325 209.911 166.5 209.911C165.675 209.911 165 209.236 165 208.411C165 207.586 164.325 206.911 163.5 206.911C162.675 206.911 162 207.548 162 208.328ZM30.313 210.697C28.285 211.986 27.182 216.214 28.177 218.883C29.26 221.784 30.722 222.875 33.559 222.896C36.041 222.914 39.788 220.366 38.773 219.35C38.374 218.952 37.368 219.19 36.537 219.88C34.637 221.457 30 220.402 30 218.392C30 217.281 31.251 216.911 35 216.911C40.601 216.911 41.501 215.412 38 211.911C35.968 209.879 32.468 209.326 30.313 210.697ZM43 216.527C43 220.116 43.438 222.911 44 222.911C44.55 222.911 45 220.976 45 218.611C45 214.057 46.311 211.911 49.093 211.911C51.183 211.911 52 213.902 52 218.993C52 221.148 52.45 222.911 53 222.911C54.262 222.911 54.289 213.917 53.033 211.93C52.458 211.022 50.338 210.39 47.548 210.296L43 210.143V216.527ZM74.615 211.784C72.482 214.141 72.557 219.2 74.755 221.189C75.918 222.241 78.111 222.715 81.255 222.594L86 222.411V216.411L85.999 210.411L81.115 210.205C77.509 210.053 75.807 210.467 74.615 211.784ZM89 216.658C89 224.016 91.003 225.077 91.531 217.999C91.897 213.087 92.954 211.565 95.644 212.077C97.125 212.358 97.561 213.501 97.805 217.736C98.009 221.3 98.501 222.912 99.305 222.649C100.995 222.094 101.267 215.887 99.73 212.911C98.642 210.803 97.699 210.397 93.72 210.325L89 210.239V216.658ZM105 211.911C101.099 215.812 103.903 222.911 109.345 222.911C110.635 222.911 112.505 222.011 113.5 220.911C115.496 218.705 114.095 218.21 111.119 220.069C108.115 221.945 106 220.434 106 216.411C106 212.232 107.956 211.015 111.566 212.946C114.556 214.547 115.668 213.722 113.476 211.53C111.268 209.322 107.416 209.495 105 211.911ZM119 211.911C115.099 215.812 117.903 222.911 123.345 222.911C124.635 222.911 126.505 222.011 127.5 220.911C129.496 218.705 128.095 218.21 125.119 220.069C122.878 221.468 120 220.554 120 218.442C120 217.294 121.126 216.911 124.5 216.911C128.278 216.911 129 216.601 129 214.982C129 210.235 122.632 208.279 119 211.911ZM147 215.289C147 221.685 148.104 222.881 153.798 222.654L158 222.486V216.199C158 212.674 157.561 209.911 157 209.911C156.45 209.911 156 211.516 156 213.477C156 217.993 154.458 220.911 152.072 220.911C149.821 220.911 149 219.018 149 213.829C149 211.674 148.55 209.911 148 209.911C147.45 209.911 147 212.331 147 215.289ZM170.015 214.661C170.036 221.13 171.029 222.344 176.452 222.526L181 222.679V216.295C181 212.706 180.562 209.911 180 209.911C179.45 209.911 179 211.881 179 214.289C179 222.959 172.762 223.207 172.195 214.559C171.795 208.455 169.996 208.54 170.015 214.661ZM185 216.563C185 220.128 185.438 222.911 186 222.911C186.55 222.911 187 220.619 187 217.817C187 213.565 187.33 212.637 189 212.201C192.046 211.404 191.385 210.034 188 210.13L185 210.215V216.563ZM194.637 211.417C191.502 214.552 191.874 219.792 195.4 222.146C198.023 223.898 205.743 221.32 203.773 219.35C203.374 218.952 202.368 219.19 201.537 219.88C199.637 221.457 195 220.402 195 218.392C195 217.281 196.251 216.911 200 216.911C205.601 216.911 206.501 215.412 203 211.911C200.63 209.541 196.742 209.311 194.637 211.417ZM36.756 213.661C37.033 214.505 36.002 214.911 33.583 214.911C30.165 214.911 29.163 214.081 30.713 212.532C31.818 211.426 36.297 212.263 36.756 213.661ZM67.068 214.037C68.738 217.158 66.789 220.911 63.5 220.911C61.794 220.911 60.601 220.13 59.876 218.537C58.401 215.3 60.255 211.911 63.5 211.911C64.954 211.911 66.386 212.765 67.068 214.037ZM81.418 212.518C82.428 212.906 83 214.345 83 216.499C83 219.268 82.55 219.986 80.487 220.504C77.441 221.268 75 219.482 75 216.489C75 212.774 77.712 211.096 81.418 212.518ZM125.418 212.518C128.188 213.581 127.122 214.911 123.5 214.911C120.191 214.911 119.172 214.072 120.667 212.578C121.497 211.748 123.35 211.724 125.418 212.518ZM201.755 213.661C202.033 214.505 201.003 214.911 198.583 214.911C196.613 214.911 195 214.498 195 213.994C195 211.798 201.043 211.5 201.755 213.661Z" fill="black"/>
</svg>
